# xmcd
#
# Track frame offsets: 
#        182
#        58457
#        95582
#        143882
#        149627
#        155572
#        171947
#        177747
#        182165
#        188407
#        192482
#        198190
#        207417
#        210310
#        216232
#        230202
#
# Disc length: 3472 seconds
#
# Revision: 6
# Processed by: cddbd v1.5.2PL0 Copyright (c) Steve Scherf et al.
# Submitted via: ExactAudioCopy v1.0b3
#
DISCID=070d8e10
DTITLE=Alfred Brendel piano - AB - CD28 Schumann: Fantasie en DO majeu
DTITLE=r Op. 17, Etudes Symphoniques Op. 13
DYEAR=1966
DGENRE=Classical
TTITLE0=Fantasie en Do majeur Op.17 - I. Durchaus phantastisch und lei
TTITLE0=denschaftlich vorzutragen
TTITLE1=Fantasie en Do majeur Op.17 - II. Mässig, durchaus energisch
TTITLE2=Fantasie en Do majeur Op.17 - III. Langsam getragen, durchweg 
TTITLE2=leise zu halten
TTITLE3=Etudes Symphoniques Op.13 - Theme
TTITLE4=Etudes Symphoniques Op.13 - étude No.01
TTITLE5=Etudes Symphoniques Op.13 - étude No.02
TTITLE6=Etudes Symphoniques Op.13 - étude No.03
TTITLE7=Etudes Symphoniques Op.13 - étude No.04
TTITLE8=Etudes Symphoniques Op.13 - étude No.05
TTITLE9=Etudes Symphoniques Op.13 - étude No.06
TTITLE10=Etudes Symphoniques Op.13 - étude No.07
TTITLE11=Etudes Symphoniques Op.13 - étude No.08
TTITLE12=Etudes Symphoniques Op.13 - étude No.09
TTITLE13=Etudes Symphoniques Op.13 - étude No.10
TTITLE14=Etudes Symphoniques Op.13 - étude No.11
TTITLE15=Etudes Symphoniques Op.13 - étude No.12
EXTD=YEAR: 1966
EXTT0=
EXTT1=
EXTT2=
EXTT3=
EXTT4=
EXTT5=
EXTT6=
EXTT7=
EXTT8=
EXTT9=
EXTT10=
EXTT11=
EXTT12=
EXTT13=
EXTT14=
EXTT15=
PLAYORDER=
